<svg width="32" height="32" viewBox="0 0 32 32" fill="none" xmlns="http://www.w3.org/2000/svg">
  <!-- 핀 그림자 -->
  <ellipse cx="16" cy="30" rx="4" ry="2" fill="rgba(0,0,0,0.2)"/>
  <!-- 핀 몸체 -->
  <path d="M16 2C10.477 2 6 6.477 6 12c0 6 10 18 10 18s10-12 10-18c0-5.523-4.477-10-10-10z" fill="#37ca79"/>
  <!-- 핀 테두리 -->
  <path d="M16 2C10.477 2 6 6.477 6 12c0 6 10 18 10 18s10-12 10-18c0-5.523-4.477-10-10-10z" stroke="#2a9d5f" stroke-width="1" fill="none"/>
  <!-- 핀 내부 원 -->
  <circle cx="16" cy="12" r="4" fill="white"/>
  <circle cx="16" cy="12" r="3" fill="#37ca79"/>
  <!-- 핀 내부 작은 원 -->
  <circle cx="16" cy="12" r="1.5" fill="white"/>
</svg>
