<svg width="120" height="120" viewBox="0 0 120 120" fill="none" xmlns="http://www.w3.org/2000/svg">
  <!-- 다람쥐 몸체 -->
  <ellipse cx="60" cy="70" rx="35" ry="40" fill="#8B4513"/>
  
  <!-- 다람쥐 머리 -->
  <circle cx="60" cy="45" r="25" fill="#8B4513"/>
  
  <!-- 귀 -->
  <ellipse cx="45" cy="30" rx="8" ry="12" fill="#8B4513"/>
  <ellipse cx="75" cy="30" rx="8" ry="12" fill="#8B4513"/>
  
  <!-- 눈 -->
  <circle cx="52" cy="40" r="4" fill="#FFD700"/>
  <circle cx="68" cy="40" r="4" fill="#FFD700"/>
  <circle cx="52" cy="40" r="2" fill="#000"/>
  <circle cx="68" cy="40" r="2" fill="#000"/>
  
  <!-- 코 -->
  <ellipse cx="60" cy="48" rx="2" ry="1" fill="#000"/>
  
  <!-- 입 -->
  <path d="M 55 55 Q 60 58 65 55" stroke="#000" stroke-width="1" fill="none"/>
  
  <!-- 앞발 -->
  <ellipse cx="45" cy="85" rx="8" ry="15" fill="#8B4513"/>
  <ellipse cx="75" cy="85" rx="8" ry="15" fill="#8B4513"/>
  
  <!-- 꼬리 -->
  <path d="M 25 60 Q 15 40 20 20 Q 30 15 40 25 Q 35 45 25 60" fill="#8B4513"/>
  
  <!-- 도토리 -->
  <ellipse cx="40" cy="75" rx="6" ry="8" fill="#654321"/>
  <ellipse cx="40" cy="75" rx="4" ry="6" fill="#8B4513"/>
</svg>
